<svg id="Layer_1" data-name="Layer 1" xmlns="http://www.w3.org/2000/svg" viewBox="0 0 759.03 178.98"><defs><style>.cls-1{fill:#00a1e4;}.cls-2{fill:#939aa0;}</style></defs><title>logo-dolfin</title><path class="cls-1" d="M389.38,105.39c-3.68-1.47-6.82-1.51-10.33-4.48-3.91-8.93-16.39-27.23-23.16-31.63s-10-3.81-6.77,3.8c9.78,24-6.07,26.44-6.07,26.44-107-3.84-165.1,73.33-165.1,73.33,68.12-68.44,153.5-67.84,193.61-61.27C442,125.33,422.15,173,422.15,173,447.48,123.31,394.79,107.51,389.38,105.39Z" transform="translate(-17.31 -66.52)"/><path class="cls-2" d="M168.74,169.39a15.18,15.18,0,0,0-7.22-6.53,43.78,43.78,0,0,0-13.05-3.5,152.08,152.08,0,0,0-20.11-1.11h-80l-31,85.56H98.93a170.83,170.83,0,0,0,20.86-1.1A71.27,71.27,0,0,0,135,239.3a37.74,37.74,0,0,0,10.91-5.91,36.8,36.8,0,0,0,7.52-8.35,61,61,0,0,0,5.48-10.58c1.54-3.81,3.16-8.08,4.83-12.67s3.13-8.83,4.36-12.68a46.35,46.35,0,0,0,2.23-10.72A16.93,16.93,0,0,0,168.74,169.39Zm-16,10.24a38.06,38.06,0,0,1-1.91,8.26c-1.16,3.48-2.61,7.64-4.32,12.39s-3.31,8.92-4.67,12.38a51.91,51.91,0,0,1-4.14,8.38,19.33,19.33,0,0,1-4.65,5.15,18.48,18.48,0,0,1-6.43,2.94,52.37,52.37,0,0,1-10,1.43c-4,.25-8.93.38-14.64.38H39.77l21.7-59.81h63.82c5.73,0,10.58.12,14.41.36a37.55,37.55,0,0,1,8.76,1.41,6.38,6.38,0,0,1,3.6,2.35A7.23,7.23,0,0,1,152.76,179.63Z" transform="translate(-17.31 -66.52)"/><polygon class="cls-2" points="349.84 91.73 332.04 91.73 301 177.29 401.68 177.29 406.36 164.41 323.47 164.41 349.84 91.73"/><polygon class="cls-2" points="450.38 127.22 458.6 104.61 545.84 104.61 550.51 91.73 445.46 91.73 414.42 177.29 432.22 177.29 445.71 140.1 528.6 140.1 533.27 127.22 450.38 127.22"/><polygon class="cls-2" points="563.25 91.73 532.21 177.29 550 177.29 581.05 91.73 563.25 91.73"/><polygon class="cls-2" points="721.45 91.73 696.35 160.88 627.95 91.73 602.5 91.73 571.47 177.29 589.26 177.29 614.99 106.36 688.31 177.29 708.2 177.29 739.24 91.73 721.45 91.73"/><path class="cls-2" d="M776.33,168.88a10.19,10.19,0,0,1-.78,4.05,9.57,9.57,0,0,1-2.12,3.12,9.36,9.36,0,0,1-3.08,2,9.77,9.77,0,0,1-3.69.71,10,10,0,0,1-3.92-.75,9,9,0,0,1-3.06-2.08,9.45,9.45,0,0,1-2-3.14,10.33,10.33,0,0,1-.73-3.93,10.23,10.23,0,0,1,.79-4,9.35,9.35,0,0,1,2.11-3.12,9.12,9.12,0,0,1,3.1-2,9.93,9.93,0,0,1,3.72-.72,9.78,9.78,0,0,1,3.69.72,9.33,9.33,0,0,1,3.08,2,9.68,9.68,0,0,1,2.12,3.12A10.23,10.23,0,0,1,776.33,168.88Zm-2.11,0a9.22,9.22,0,0,0-.58-3.3A7.49,7.49,0,0,0,772,163a7.23,7.23,0,0,0-2.4-1.68,7.32,7.32,0,0,0-3-.6,7.39,7.39,0,0,0-3,.6,7.31,7.31,0,0,0-2.42,1.68,7.62,7.62,0,0,0-1.61,2.6,9,9,0,0,0-.58,3.3,9.23,9.23,0,0,0,.53,3.18,7.61,7.61,0,0,0,1.52,2.59,7.2,7.2,0,0,0,2.38,1.76,7.4,7.4,0,0,0,3.17.65,7.32,7.32,0,0,0,3-.6,7.06,7.06,0,0,0,2.4-1.67,7.79,7.79,0,0,0,1.62-2.58A9.31,9.31,0,0,0,774.22,168.88Zm-9.51,5.67h-1.8v-11h4.15a5.05,5.05,0,0,1,3,.73,2.79,2.79,0,0,1,1,2.41,2.7,2.7,0,0,1-.82,2.17,3.71,3.71,0,0,1-2,.82l3.07,4.82h-2l-2.82-4.69h-1.69Zm2-6.22a7.52,7.52,0,0,0,1-.05,2.06,2.06,0,0,0,.81-.22,1.57,1.57,0,0,0,.55-.51,1.7,1.7,0,0,0,.21-.94,1.23,1.23,0,0,0-.22-.8,1.54,1.54,0,0,0-.58-.45,2.23,2.23,0,0,0-.76-.19c-.28,0-.55,0-.81,0h-2.17v3.21Z" transform="translate(-17.31 -66.52)"/><path class="cls-1" d="M195.24,159.92s74.89-65.68,178.09-43.38c29.58,7.49,57.75,22.17,46,57.67,0,0,8.57-39.83-55.59-52.63C335,116.57,265,110,195.24,159.92Z" transform="translate(-17.31 -66.52)"/><path class="cls-1" d="M415.9,177.6c-.5-.85-.49-6.17-.49-6.17a40.59,40.59,0,0,0-1.24-8.77C399.66,110,292.58,124.55,292.58,124.55c1.89-.08,3.74-.16,5.56-.21l1.41,0,4-.09,1.41,0,3.87,0H314l1,0c1.35,0,2.69,0,4,.08l.69,0c1.41,0,2.8.08,4.15.14l.42,0c1.44.06,2.86.13,4.25.21h.19c1.46.09,2.9.17,4.3.28h0c3.18.46,5.84,2.31-5.9,9.26-5.42,3.19-1,3.69,13.78,1.72,5.64-.76,32.43-6.79,49.13,2.18,22.72,14,20.93,29.53,21.28,39.22.89,15.18,13.2-2.52,13.2-2.52C418.86,180.79,416.91,179.76,415.9,177.6Z" transform="translate(-17.31 -66.52)"/><path class="cls-2" d="M322,168.2a14.85,14.85,0,0,0-7.08-6.83,42.56,42.56,0,0,0-13-3.65,144.09,144.09,0,0,0-20.11-1.16H242.4a165.14,165.14,0,0,0-20.93,1.15,71,71,0,0,0-15.26,3.56,37.53,37.53,0,0,0-11,6.16,38.61,38.61,0,0,0-7.63,8.69,63.81,63.81,0,0,0-5.58,11c-1.58,4-3.25,8.39-5,13.17s-3.28,9.22-4.58,13.16a48.09,48.09,0,0,0-2.41,11.13,18.12,18.12,0,0,0,1.46,9.3,14.91,14.91,0,0,0,7.11,6.82,42.31,42.31,0,0,0,13,3.66,146.12,146.12,0,0,0,20.12,1.15h39.39A164.8,164.8,0,0,0,272,244.35a70.19,70.19,0,0,0,15.27-3.56,36.61,36.61,0,0,0,10.92-6.17,38.41,38.41,0,0,0,7.6-8.67,65.79,65.79,0,0,0,5.62-11c1.58-3.94,3.27-8.37,5-13.16s3.26-9.22,4.54-13.18a50.07,50.07,0,0,0,2.38-11.13A18.53,18.53,0,0,0,322,168.2Zm-16.09,10.31a44.6,44.6,0,0,1-2.13,8.75c-1.19,3.62-2.73,8-4.55,13s-3.45,9.36-4.88,13a56.23,56.23,0,0,1-4.3,8.87,19.86,19.86,0,0,1-4.73,5.43,18.9,18.9,0,0,1-6.5,3.1,49.62,49.62,0,0,1-10,1.54c-4,.26-8.93.39-14.63.39h-39.4c-5.75,0-10.59-.13-14.39-.39a34.4,34.4,0,0,1-8.69-1.49,6.07,6.07,0,0,1-3.49-2.47,8.13,8.13,0,0,1-.59-4.71,44.51,44.51,0,0,1,2.13-8.76c1.19-3.58,2.71-8,4.55-13s3.47-9.42,4.87-13a55,55,0,0,1,4.24-8.86,20.35,20.35,0,0,1,4.73-5.43,19.27,19.27,0,0,1,6.5-3.11,49.79,49.79,0,0,1,10-1.53c4-.26,9-.39,14.7-.39h39.4c5.73,0,10.57.13,14.38.39a33.54,33.54,0,0,1,8.64,1.49,6.3,6.3,0,0,1,3.52,2.49A7.93,7.93,0,0,1,305.88,178.51Z" transform="translate(-17.31 -66.52)"/></svg>